<svg width="208" height="36" viewBox="0 0 208 36" fill="none" xmlns="http://www.w3.org/2000/svg">
<path d="M3.02394 35V2.36H15.4079C18.2559 2.36 20.6079 2.728 22.4639 3.464C24.3519 4.2 25.7599 5.416 26.6879 7.112C27.6479 8.776 28.1279 11.08 28.1279 14.024C28.1279 16.904 27.6479 19.24 26.6879 21.032C25.7599 22.792 24.3519 24.072 22.4639 24.872C20.6079 25.672 18.2559 26.072 15.4079 26.072H10.6079V35H3.02394ZM10.6079 19.928H15.1679C17.0239 19.928 18.3519 19.448 19.1519 18.488C19.9839 17.496 20.3999 16.008 20.3999 14.024C20.3999 12.008 19.9999 10.584 19.1999 9.752C18.3999 8.92 17.0559 8.504 15.1679 8.504H10.6079V19.928ZM31.5629 35V10.856H38.9069V35H31.5629ZM31.5629 7.496V1.64H38.9069V7.496H31.5629ZM53.8338 35.576C50.9858 35.576 48.7618 35.16 47.1618 34.328C45.5618 33.464 44.4418 32.088 43.8018 30.2C43.1618 28.312 42.8418 25.832 42.8418 22.76C42.8418 19.656 43.2098 17.208 43.9458 15.416C44.6818 13.592 45.8498 12.296 47.4498 11.528C49.0818 10.728 51.2098 10.328 53.8338 10.328C54.5698 10.328 55.4018 10.376 56.3298 10.472C57.2578 10.568 58.1858 10.696 59.1138 10.856C60.0418 11.016 60.8418 11.176 61.5138 11.336L61.2738 17.192C60.6338 17.128 59.9138 17.064 59.1138 17C58.3138 16.936 57.5458 16.888 56.8098 16.856C56.0738 16.792 55.4818 16.76 55.0338 16.76C53.8178 16.76 52.8578 16.952 52.1538 17.336C51.4498 17.72 50.9538 18.36 50.6658 19.256C50.3778 20.12 50.2338 21.288 50.2338 22.76C50.2338 24.296 50.3618 25.544 50.6178 26.504C50.9058 27.432 51.3858 28.104 52.0578 28.52C52.7618 28.904 53.7538 29.096 55.0338 29.096C55.4818 29.096 56.0738 29.08 56.8098 29.048C57.5778 28.984 58.3618 28.92 59.1618 28.856C59.9938 28.792 60.7298 28.744 61.3698 28.712L61.5618 34.52C60.9218 34.68 60.1378 34.84 59.2098 35C58.3138 35.128 57.3858 35.256 56.4258 35.384C55.4658 35.512 54.6018 35.576 53.8338 35.576ZM78.7061 35.432C75.8581 35.432 73.5221 35.096 71.6981 34.424C69.9061 33.72 68.4821 32.664 67.4261 31.256C66.4021 29.848 65.6821 28.104 65.2661 26.024C64.8501 23.912 64.6421 21.464 64.6421 18.68C64.6421 15.704 64.8821 13.16 65.3621 11.048C65.8421 8.904 66.6261 7.16 67.7141 5.816C68.8341 4.44 70.2901 3.432 72.0821 2.792C73.8741 2.12 76.0661 1.784 78.6581 1.784C79.9381 1.784 81.2981 1.864 82.7381 2.024C84.2101 2.152 85.6021 2.328 86.9141 2.552C88.2261 2.776 89.3301 3 90.2261 3.224L90.1781 9.08C89.2501 8.952 88.1301 8.84 86.8181 8.744C85.5381 8.616 84.2421 8.504 82.9301 8.408C81.6181 8.312 80.4341 8.264 79.3781 8.264C77.8421 8.264 76.6101 8.472 75.6821 8.888C74.7541 9.272 74.0501 9.88 73.5701 10.712C73.0901 11.544 72.7541 12.616 72.5621 13.928C72.4021 15.24 72.3221 16.824 72.3221 18.68C72.3221 21.048 72.4981 23 72.8501 24.536C73.2021 26.072 73.8581 27.224 74.8181 27.992C75.8101 28.728 77.2341 29.096 79.0901 29.096C79.5061 29.096 79.9541 29.08 80.4341 29.048C80.9461 29.016 81.4421 28.984 81.9221 28.952C82.4021 28.888 82.8181 28.84 83.1701 28.808V22.664H79.8101V17H90.3701V34.184C89.6021 34.28 88.7061 34.408 87.6821 34.568C86.6581 34.728 85.6021 34.872 84.5141 35C83.4261 35.128 82.3701 35.224 81.3461 35.288C80.3221 35.384 79.4421 35.432 78.7061 35.432ZM102.762 35.576C100.682 35.576 99.0499 35.128 97.8659 34.232C96.7139 33.304 95.8979 31.944 95.4179 30.152C94.9379 28.36 94.6979 26.104 94.6979 23.384V10.856H102.042V23.048C102.042 24.584 102.122 25.8 102.282 26.696C102.442 27.592 102.762 28.232 103.242 28.616C103.722 28.968 104.41 29.144 105.306 29.144C106.138 29.144 106.938 29.048 107.706 28.856C108.474 28.632 109.082 28.408 109.53 28.184V10.856H116.874V35H109.578V33.608C108.49 34.184 107.418 34.648 106.362 35C105.338 35.384 104.138 35.576 102.762 35.576ZM131.739 35.576C129.019 35.576 126.843 35.128 125.211 34.232C123.611 33.336 122.459 31.976 121.755 30.152C121.083 28.328 120.747 26.024 120.747 23.24C120.747 20.328 121.163 17.928 121.995 16.04C122.859 14.12 124.123 12.696 125.787 11.768C127.451 10.808 129.547 10.328 132.075 10.328C135.787 10.328 138.571 11.224 140.427 13.016C142.315 14.808 143.259 17.64 143.259 21.512L142.875 25.304H128.091C128.123 26.84 128.443 27.992 129.051 28.76C129.691 29.496 130.779 29.864 132.315 29.864C133.307 29.864 134.411 29.848 135.627 29.816C136.875 29.752 138.107 29.688 139.323 29.624C140.539 29.56 141.579 29.496 142.443 29.432L142.587 34.424C141.755 34.584 140.715 34.76 139.467 34.952C138.219 35.112 136.923 35.256 135.579 35.384C134.235 35.512 132.955 35.576 131.739 35.576ZM128.043 20.84H135.915C135.915 18.92 135.611 17.592 135.003 16.856C134.395 16.088 133.419 15.704 132.075 15.704C131.179 15.704 130.427 15.88 129.819 16.232C129.243 16.552 128.811 17.096 128.523 17.864C128.235 18.6 128.075 19.592 128.043 20.84ZM156.089 35.576C154.905 35.576 153.689 35.512 152.441 35.384C151.193 35.256 150.041 35.112 148.985 34.952C147.929 34.76 147.049 34.584 146.345 34.424L146.585 29.144C147.417 29.24 148.361 29.352 149.417 29.48C150.473 29.608 151.513 29.72 152.537 29.816C153.561 29.912 154.393 29.96 155.033 29.96C155.897 29.96 156.601 29.896 157.145 29.768C157.689 29.64 158.089 29.416 158.345 29.096C158.633 28.776 158.777 28.328 158.777 27.752C158.777 27.336 158.633 27 158.345 26.744C158.089 26.488 157.609 26.28 156.905 26.12C156.233 25.928 155.225 25.736 153.881 25.544C152.089 25.288 150.617 24.92 149.465 24.44C148.313 23.928 147.465 23.192 146.921 22.232C146.409 21.24 146.153 19.928 146.153 18.296C146.153 16.216 146.585 14.6 147.449 13.448C148.345 12.296 149.529 11.496 151.001 11.048C152.473 10.568 154.089 10.328 155.849 10.328C157.065 10.328 158.281 10.392 159.497 10.52C160.745 10.616 161.897 10.744 162.953 10.904C164.009 11.064 164.889 11.224 165.593 11.384L165.353 16.856C164.553 16.728 163.609 16.616 162.521 16.52C161.465 16.392 160.409 16.296 159.353 16.232C158.329 16.168 157.465 16.136 156.761 16.136C156.089 16.136 155.497 16.2 154.985 16.328C154.505 16.424 154.137 16.616 153.881 16.904C153.625 17.16 153.497 17.544 153.497 18.056C153.497 18.44 153.609 18.76 153.833 19.016C154.057 19.24 154.505 19.448 155.177 19.64C155.849 19.8 156.825 19.96 158.105 20.12C160.057 20.376 161.625 20.776 162.809 21.32C163.993 21.864 164.841 22.632 165.353 23.624C165.865 24.584 166.121 25.896 166.121 27.56C166.121 29.512 165.737 31.08 164.969 32.264C164.201 33.416 163.065 34.264 161.561 34.808C160.057 35.32 158.233 35.576 156.089 35.576ZM179.011 35.576C177.827 35.576 176.611 35.512 175.363 35.384C174.115 35.256 172.963 35.112 171.907 34.952C170.851 34.76 169.971 34.584 169.267 34.424L169.507 29.144C170.339 29.24 171.283 29.352 172.339 29.48C173.395 29.608 174.435 29.72 175.459 29.816C176.483 29.912 177.315 29.96 177.955 29.96C178.819 29.96 179.523 29.896 180.067 29.768C180.611 29.64 181.011 29.416 181.267 29.096C181.555 28.776 181.699 28.328 181.699 27.752C181.699 27.336 181.555 27 181.267 26.744C181.011 26.488 180.531 26.28 179.827 26.12C179.155 25.928 178.147 25.736 176.803 25.544C175.011 25.288 173.539 24.92 172.387 24.44C171.235 23.928 170.387 23.192 169.843 22.232C169.331 21.24 169.075 19.928 169.075 18.296C169.075 16.216 169.507 14.6 170.371 13.448C171.267 12.296 172.451 11.496 173.923 11.048C175.395 10.568 177.011 10.328 178.771 10.328C179.987 10.328 181.203 10.392 182.419 10.52C183.667 10.616 184.819 10.744 185.875 10.904C186.931 11.064 187.811 11.224 188.515 11.384L188.275 16.856C187.475 16.728 186.531 16.616 185.443 16.52C184.387 16.392 183.331 16.296 182.275 16.232C181.251 16.168 180.387 16.136 179.683 16.136C179.011 16.136 178.419 16.2 177.907 16.328C177.427 16.424 177.059 16.616 176.803 16.904C176.547 17.16 176.419 17.544 176.419 18.056C176.419 18.44 176.531 18.76 176.755 19.016C176.979 19.24 177.427 19.448 178.099 19.64C178.771 19.8 179.747 19.96 181.027 20.12C182.979 20.376 184.547 20.776 185.731 21.32C186.915 21.864 187.763 22.632 188.275 23.624C188.787 24.584 189.043 25.896 189.043 27.56C189.043 29.512 188.659 31.08 187.891 32.264C187.123 33.416 185.987 34.264 184.483 34.808C182.979 35.32 181.155 35.576 179.011 35.576ZM192.813 35V10.856H200.157V13.592C200.669 13.176 201.309 12.744 202.077 12.296C202.845 11.816 203.661 11.384 204.525 11C205.389 10.616 206.221 10.376 207.021 10.28V17.288C206.253 17.384 205.437 17.576 204.573 17.864C203.709 18.12 202.893 18.424 202.125 18.776C201.357 19.096 200.701 19.4 200.157 19.688V35H192.813Z" fill="white"/>
<path d="M39 1H32V7H39V1Z" fill="#990609" stroke="#990609"/>
</svg>
