<svg width="233" height="35" viewBox="0 0 233 35" fill="none" xmlns="http://www.w3.org/2000/svg">
<path d="M2.82081 34V1.36H15.2048C18.0528 1.36 20.4048 1.728 22.2608 2.464C24.1488 3.2 25.5568 4.416 26.4848 6.112C27.4448 7.776 27.9248 10.08 27.9248 13.024C27.9248 15.904 27.4448 18.24 26.4848 20.032C25.5568 21.792 24.1488 23.072 22.2608 23.872C20.4048 24.672 18.0528 25.072 15.2048 25.072H10.4048V34H2.82081ZM10.4048 18.928H14.9648C16.8208 18.928 18.1488 18.448 18.9488 17.488C19.7808 16.496 20.1968 15.008 20.1968 13.024C20.1968 11.008 19.7968 9.584 18.9968 8.752C18.1968 7.92 16.8528 7.504 14.9648 7.504H10.4048V18.928ZM31.3598 34V9.856H38.7038V34H31.3598ZM31.3598 6.496V0.639997H38.7038V6.496H31.3598ZM53.6307 34.576C50.7827 34.576 48.5587 34.16 46.9587 33.328C45.3587 32.464 44.2387 31.088 43.5987 29.2C42.9587 27.312 42.6387 24.832 42.6387 21.76C42.6387 18.656 43.0067 16.208 43.7427 14.416C44.4787 12.592 45.6467 11.296 47.2467 10.528C48.8787 9.728 51.0067 9.328 53.6307 9.328C54.3667 9.328 55.1987 9.376 56.1267 9.472C57.0547 9.568 57.9827 9.696 58.9107 9.856C59.8387 10.016 60.6387 10.176 61.3107 10.336L61.0707 16.192C60.4307 16.128 59.7107 16.064 58.9107 16C58.1107 15.936 57.3427 15.888 56.6067 15.856C55.8707 15.792 55.2787 15.76 54.8307 15.76C53.6147 15.76 52.6547 15.952 51.9507 16.336C51.2467 16.72 50.7507 17.36 50.4627 18.256C50.1747 19.12 50.0307 20.288 50.0307 21.76C50.0307 23.296 50.1587 24.544 50.4147 25.504C50.7027 26.432 51.1827 27.104 51.8547 27.52C52.5587 27.904 53.5507 28.096 54.8307 28.096C55.2787 28.096 55.8707 28.08 56.6067 28.048C57.3747 27.984 58.1587 27.92 58.9587 27.856C59.7907 27.792 60.5267 27.744 61.1667 27.712L61.3587 33.52C60.7187 33.68 59.9347 33.84 59.0067 34C58.1107 34.128 57.1827 34.256 56.2227 34.384C55.2627 34.512 54.3987 34.576 53.6307 34.576ZM78.5029 34.432C75.6549 34.432 73.3189 34.096 71.4949 33.424C69.7029 32.72 68.2789 31.664 67.2229 30.256C66.1989 28.848 65.4789 27.104 65.0629 25.024C64.6469 22.912 64.4389 20.464 64.4389 17.68C64.4389 14.704 64.6789 12.16 65.1589 10.048C65.6389 7.904 66.4229 6.16 67.5109 4.816C68.6309 3.44 70.0869 2.432 71.8789 1.792C73.6709 1.12 75.8629 0.783998 78.4549 0.783998C79.7349 0.783998 81.0949 0.863998 82.5349 1.024C84.0069 1.152 85.3989 1.328 86.7109 1.552C88.0229 1.776 89.1269 2 90.0229 2.224L89.9749 8.08C89.0469 7.952 87.9269 7.84 86.6149 7.744C85.3349 7.616 84.0389 7.504 82.7269 7.408C81.4149 7.312 80.2309 7.264 79.1749 7.264C77.6389 7.264 76.4069 7.472 75.4789 7.888C74.5509 8.272 73.8469 8.88 73.3669 9.712C72.8869 10.544 72.5509 11.616 72.3589 12.928C72.1989 14.24 72.1189 15.824 72.1189 17.68C72.1189 20.048 72.2949 22 72.6469 23.536C72.9989 25.072 73.6549 26.224 74.6149 26.992C75.6069 27.728 77.0309 28.096 78.8869 28.096C79.3029 28.096 79.7509 28.08 80.2309 28.048C80.7429 28.016 81.2389 27.984 81.7189 27.952C82.1989 27.888 82.6149 27.84 82.9669 27.808V21.664H79.6069V16H90.1669V33.184C89.3989 33.28 88.5029 33.408 87.4789 33.568C86.4549 33.728 85.3989 33.872 84.3109 34C83.2229 34.128 82.1669 34.224 81.1429 34.288C80.1189 34.384 79.2389 34.432 78.5029 34.432ZM102.559 34.576C100.479 34.576 98.8468 34.128 97.6628 33.232C96.5108 32.304 95.6948 30.944 95.2148 29.152C94.7348 27.36 94.4948 25.104 94.4948 22.384V9.856H101.839V22.048C101.839 23.584 101.919 24.8 102.079 25.696C102.239 26.592 102.559 27.232 103.039 27.616C103.519 27.968 104.207 28.144 105.103 28.144C105.935 28.144 106.735 28.048 107.503 27.856C108.271 27.632 108.879 27.408 109.327 27.184V9.856H116.671V34H109.375V32.608C108.287 33.184 107.215 33.648 106.159 34C105.135 34.384 103.935 34.576 102.559 34.576ZM131.536 34.576C128.816 34.576 126.64 34.128 125.008 33.232C123.408 32.336 122.256 30.976 121.552 29.152C120.88 27.328 120.544 25.024 120.544 22.24C120.544 19.328 120.96 16.928 121.792 15.04C122.656 13.12 123.92 11.696 125.584 10.768C127.248 9.808 129.344 9.328 131.872 9.328C135.584 9.328 138.368 10.224 140.224 12.016C142.112 13.808 143.056 16.64 143.056 20.512L142.672 24.304H127.888C127.92 25.84 128.24 26.992 128.848 27.76C129.488 28.496 130.576 28.864 132.112 28.864C133.104 28.864 134.208 28.848 135.424 28.816C136.672 28.752 137.904 28.688 139.12 28.624C140.336 28.56 141.376 28.496 142.24 28.432L142.384 33.424C141.552 33.584 140.512 33.76 139.264 33.952C138.016 34.112 136.72 34.256 135.376 34.384C134.032 34.512 132.752 34.576 131.536 34.576ZM127.84 19.84H135.712C135.712 17.92 135.408 16.592 134.8 15.856C134.192 15.088 133.216 14.704 131.872 14.704C130.976 14.704 130.224 14.88 129.616 15.232C129.04 15.552 128.608 16.096 128.32 16.864C128.032 17.6 127.872 18.592 127.84 19.84ZM155.886 34.576C154.702 34.576 153.486 34.512 152.238 34.384C150.99 34.256 149.838 34.112 148.782 33.952C147.726 33.76 146.846 33.584 146.142 33.424L146.382 28.144C147.214 28.24 148.158 28.352 149.214 28.48C150.27 28.608 151.31 28.72 152.334 28.816C153.358 28.912 154.19 28.96 154.83 28.96C155.694 28.96 156.398 28.896 156.942 28.768C157.486 28.64 157.886 28.416 158.142 28.096C158.43 27.776 158.574 27.328 158.574 26.752C158.574 26.336 158.43 26 158.142 25.744C157.886 25.488 157.406 25.28 156.702 25.12C156.03 24.928 155.022 24.736 153.678 24.544C151.886 24.288 150.414 23.92 149.262 23.44C148.11 22.928 147.262 22.192 146.718 21.232C146.206 20.24 145.95 18.928 145.95 17.296C145.95 15.216 146.382 13.6 147.246 12.448C148.142 11.296 149.326 10.496 150.798 10.048C152.27 9.568 153.886 9.328 155.646 9.328C156.862 9.328 158.078 9.392 159.294 9.52C160.542 9.616 161.694 9.744 162.75 9.904C163.806 10.064 164.686 10.224 165.39 10.384L165.15 15.856C164.35 15.728 163.406 15.616 162.318 15.52C161.262 15.392 160.206 15.296 159.15 15.232C158.126 15.168 157.262 15.136 156.558 15.136C155.886 15.136 155.294 15.2 154.782 15.328C154.302 15.424 153.934 15.616 153.678 15.904C153.422 16.16 153.294 16.544 153.294 17.056C153.294 17.44 153.406 17.76 153.63 18.016C153.854 18.24 154.302 18.448 154.974 18.64C155.646 18.8 156.622 18.96 157.902 19.12C159.854 19.376 161.422 19.776 162.606 20.32C163.79 20.864 164.638 21.632 165.15 22.624C165.662 23.584 165.918 24.896 165.918 26.56C165.918 28.512 165.534 30.08 164.766 31.264C163.998 32.416 162.862 33.264 161.358 33.808C159.854 34.32 158.03 34.576 155.886 34.576ZM178.808 34.576C177.624 34.576 176.408 34.512 175.16 34.384C173.912 34.256 172.76 34.112 171.704 33.952C170.648 33.76 169.768 33.584 169.064 33.424L169.304 28.144C170.136 28.24 171.08 28.352 172.136 28.48C173.192 28.608 174.232 28.72 175.256 28.816C176.28 28.912 177.112 28.96 177.752 28.96C178.616 28.96 179.32 28.896 179.864 28.768C180.408 28.64 180.808 28.416 181.064 28.096C181.352 27.776 181.496 27.328 181.496 26.752C181.496 26.336 181.352 26 181.064 25.744C180.808 25.488 180.328 25.28 179.624 25.12C178.952 24.928 177.944 24.736 176.6 24.544C174.808 24.288 173.336 23.92 172.184 23.44C171.032 22.928 170.184 22.192 169.64 21.232C169.128 20.24 168.872 18.928 168.872 17.296C168.872 15.216 169.304 13.6 170.168 12.448C171.064 11.296 172.248 10.496 173.72 10.048C175.192 9.568 176.808 9.328 178.568 9.328C179.784 9.328 181 9.392 182.216 9.52C183.464 9.616 184.616 9.744 185.672 9.904C186.728 10.064 187.608 10.224 188.312 10.384L188.072 15.856C187.272 15.728 186.328 15.616 185.24 15.52C184.184 15.392 183.128 15.296 182.072 15.232C181.048 15.168 180.184 15.136 179.48 15.136C178.808 15.136 178.216 15.2 177.704 15.328C177.224 15.424 176.856 15.616 176.6 15.904C176.344 16.16 176.216 16.544 176.216 17.056C176.216 17.44 176.328 17.76 176.552 18.016C176.776 18.24 177.224 18.448 177.896 18.64C178.568 18.8 179.544 18.96 180.824 19.12C182.776 19.376 184.344 19.776 185.528 20.32C186.712 20.864 187.56 21.632 188.072 22.624C188.584 23.584 188.84 24.896 188.84 26.56C188.84 28.512 188.456 30.08 187.688 31.264C186.92 32.416 185.784 33.264 184.28 33.808C182.776 34.32 180.952 34.576 178.808 34.576ZM202.786 34.576C200.066 34.576 197.89 34.128 196.258 33.232C194.658 32.336 193.506 30.976 192.802 29.152C192.13 27.328 191.794 25.024 191.794 22.24C191.794 19.328 192.21 16.928 193.042 15.04C193.906 13.12 195.17 11.696 196.834 10.768C198.498 9.808 200.594 9.328 203.122 9.328C206.834 9.328 209.618 10.224 211.474 12.016C213.362 13.808 214.306 16.64 214.306 20.512L213.922 24.304H199.138C199.17 25.84 199.49 26.992 200.098 27.76C200.738 28.496 201.826 28.864 203.362 28.864C204.354 28.864 205.458 28.848 206.674 28.816C207.922 28.752 209.154 28.688 210.37 28.624C211.586 28.56 212.626 28.496 213.49 28.432L213.634 33.424C212.802 33.584 211.762 33.76 210.514 33.952C209.266 34.112 207.97 34.256 206.626 34.384C205.282 34.512 204.002 34.576 202.786 34.576ZM199.09 19.84H206.962C206.962 17.92 206.658 16.592 206.05 15.856C205.442 15.088 204.466 14.704 203.122 14.704C202.226 14.704 201.474 14.88 200.866 15.232C200.29 15.552 199.858 16.096 199.57 16.864C199.282 17.6 199.122 18.592 199.09 19.84ZM218.016 34V9.856H225.36V12.592C225.872 12.176 226.512 11.744 227.28 11.296C228.048 10.816 228.864 10.384 229.728 10C230.592 9.616 231.424 9.376 232.224 9.28V16.288C231.456 16.384 230.64 16.576 229.776 16.864C228.912 17.12 228.096 17.424 227.328 17.776C226.56 18.096 225.904 18.4 225.36 18.688V34H218.016Z" fill="white"/>
<path d="M38.5 0.5H31.5V6.5H38.5V0.5Z" fill="#294F32" stroke="#294F32"/>
</svg>
